<?xml version="1.0" encoding="UTF-8"?>
<svg id="Layer_2" data-name="Layer 2" xmlns="http://www.w3.org/2000/svg" viewBox="0 0 148.75 26.93">
  <defs>
    <style>
      .cls-1 {
        fill: #00474a;
      }

      .cls-2 {
        fill: #3db28c;
      }

      .cls-3 {
        fill: #007961;
      }
    </style>
  </defs>
  <g id="Layer_1-2" data-name="Layer 1">
    <polygon class="cls-3" points="17.81 3.63 11.79 9.81 11.84 23.23 13.55 23.81 13.49 10.38 19.51 4.2 17.81 3.63"/>
    <polygon class="cls-3" points="13.4 2.16 7.41 8.31 7.47 21.76 10.36 22.74 10.31 9.29 16.3 3.13 13.4 2.16"/>
    <polygon class="cls-3" points="7.22 0 1.2 6.18 1.26 19.67 5.8 21.23 5.75 7.74 11.77 1.56 7.22 0"/>
    <polygon class="cls-2" points="19.51 4.21 13.49 10.39 13.55 23.81 18.31 22.21 18.28 15.08 21.75 13.92 21.78 21.05 25.85 19.68 25.79 6.26 19.51 4.21"/>
    <polyline class="cls-2" points="13.56 26.93 27.66 22.19 27.65 20.55 13.56 25.28"/>
    <polyline class="cls-3" points="13.56 25.28 0 20.61 0 22.26 13.56 26.93"/>
    <path class="cls-1" d="M41.08,5.91h-6.19v14.21h3.43v-5.8h1.93c3.91-.08,5.86-1.48,5.86-4.33,0-2.43-1.9-4.08-5.02-4.08M39.7,13.33h-1.38v-6.43h1.63c2.09,0,2.62,1.49,2.62,3.11,0,1.89-.59,3.32-2.87,3.32"/>
    <path class="cls-1" d="M77.49,5.97c0-1.03.84-1.86,1.86-1.86s1.86.84,1.86,1.86-.84,1.86-1.86,1.86-1.86-.84-1.86-1.86M77.72,9.24h3.26v10.88h-3.26v-10.88Z"/>
    <path class="cls-1" d="M123.96,14.89c0-3.24,2.43-5.54,6.01-5.54s6.03,2.3,6.03,5.54-2.43,5.55-6.03,5.55-6.01-2.32-6.01-5.55M132.47,14.89c0-3.44-.82-4.6-2.51-4.6s-2.49,1.16-2.49,4.6.82,4.6,2.49,4.6,2.51-1.23,2.51-4.6"/>
    <path class="cls-1" d="M72.15,13.48c-1.03-.45-2.1-.86-2.24-2.02,0,0,0-.02,0-.02,0-.05,0-.1,0-.15h0s0-.06,0-.09c0-.02,0-.03,0-.05.03-.57.37-.82.57-.91.21-.09.49-.14.87-.12,0,0,.37,0,1.09.22,1.59.5,2.45,1.11,2.45,1.11v-1.19c-1.27-.82-3.04-.91-3.04-.91,0,0-.17,0-.26,0-2.68,0-4.37,1.26-4.37,3.31,0,2.18,1.72,2.87,3.26,3.47.71.29,1.47.57,2.01,1h0s0,0,0,0c.1.08.19.17.27.26.22.27.45.75.22,1.43-.21.53-.79,1.03-2.3.68-.7-.16-1.25-.31-1.69-.45-.92-.31-1.64-.69-1.64-.69l.02,1.3c1.15.54,2.64.77,3.75.77,2.74,0,4.64-1.26,4.64-3.39s-1.97-2.82-3.58-3.56"/>
    <path class="cls-1" d="M98.07,9.35h0s-2.98-.31-4.4,1.5c-.53-.84-1.45-1.42-2.75-1.5h0s-2.74-.28-4.22,1.29l-1.63-1.4h-1.28v10.88h3.26v-7.07c0-.36.08-.74.11-.84.28-1.02.87-1.69,1.97-1.69,1.42,0,1.84.9,1.84,2.39v7.22h3.26v-6.92c0-.54.06-.86.08-.96.26-1.01.89-1.73,1.99-1.73,1.42,0,1.84.9,1.84,2.39v7.22h3.26v-6.86c0-2.48-1.13-3.79-3.34-3.9"/>
    <path class="cls-1" d="M118.48,9.35h0s-2.98-.31-4.4,1.5c-.53-.85-1.46-1.42-2.76-1.5h0s-2.73-.28-4.21,1.28l-1.63-1.4h-1.28v10.88h3.26v-7.07c0-.36.08-.74.11-.84.29-1.02.87-1.69,1.97-1.69,1.42,0,1.84.9,1.84,2.39v7.22h3.26v-6.92c0-.54.06-.86.08-.96.26-1.01.89-1.73,1.99-1.73,1.42,0,1.84.9,1.84,2.39v7.22h3.26v-6.86c0-2.48-1.13-3.79-3.34-3.9"/>
    <path class="cls-1" d="M145.37,9.35h0s-2.77-.29-4.25,1.32l-1.66-1.43h-1.28v10.88h3.31v-6.4c0-.31.02-.59.05-.84,0-.05.02-.11.02-.17.03-.24.07-.44.11-.6.18-.64.5-1.01.72-1.21.02-.01.04-.03.06-.05.02-.01.03-.03.05-.04.29-.2.65-.31,1.08-.31,1.42,0,1.88.88,1.88,2.39v7.22h3.29v-6.86c0-2.53-1.18-3.79-3.38-3.9"/>
    <path class="cls-1" d="M66.1,9.32s-.01,0-.02,0h0s-.1,0-.19,0c-.59.02-2.18.18-3.16,1.32l-1.64-1.41h-1.28s0,10.88,0,10.88h3.26v-7.08c0-1.45.74-2.08,1.49-2.35.52-.14,1.08-.17,1.55-.17v-1.2s0,0,0,0"/>
    <path class="cls-1" d="M57.55,14.93c.08-.4.15-.79.15-1.17,0-2.57-1.88-4.42-4.77-4.42s-5.86,1.72-5.86,5.48c0,3.08,1.99,5.61,5.96,5.61,2.04,0,3.15-.64,3.92-1.25.22-.16.33-.27.33-.27v-1.03c-2.33,2.09-4.31,1.65-4.6,1.59-1-.23-1.49-1.09-1.71-1.7-.25-.74-.38-1.67-.39-2.84h6.97ZM52.93,10.3c1.32,0,1.95.93,1.95,2.99,0,.21,0,.47-.02.73h-4.26c.09-2.54.66-3.73,2.33-3.73"/>
  </g>
</svg>