<svg version="1.2" xmlns="http://www.w3.org/2000/svg" viewBox="555 155 1000 320">
	<style>
		.s0 { fill: #000000 }
	</style>
	<path fill-rule="evenodd" class="s0" d="m1289 391.3v-151.4c0-23.7-2.4-43.5-29.5-49.3-5.8 0-12-2.6-12-9.2 0-10.3 13-8.2 19.7-8.2 21.9 3.1 44.6 3 66.6 2.1 21.4-0.7 42.7-2.6 64-2.6 32 0 57.1 7 75.4 21 18.2 14 27.4 33.2 27.4 57.5 0 22.5-9.7 46-31.5 55.3-8.8 3.6-19.7 5.7-28.1 9.9-3.1 1.7-2.1 3.7-0.6 6.3 14 25.2 31.5 49.4 47.1 73.8 11.1 17.4 19.1 28.2 23.9 32.6 4.8 4.3 9.8 6.5 15.1 6.5 2.9 0 5.3-1.1 8-1.5 4.9-0.7 8 2.7 8 7.3 0 6.1-5.1 11.5-15.2 16.2-10.1 4.8-22 7.2-35.8 7.2-14.6 0-27.1-4.5-37.7-13.4-10.6-8.9-23-26.6-37.1-53.1-7.7-16.7-31.5-70.5-48.4-70.5-12.3 0-16.4 4.6-16.4 16.9v60c0 14.4 1.3 25.5 13.8 34.1 7.5 5 20.6 4.8 27 10.2 6.2 5.1 1.2 15.8-6.3 15.8-5.4 0-11.1-0.7-16.5-1.6-17.1-1.9-32-2.8-44.8-2.8-15 0-30.2 1-45.1 3.2-7.1 0.8-23.5 4.5-23.5-7.5 0-9.3 19.6-14.3 25.1-21.3 8.9-11.3 7.4-30.3 7.4-43.5zm62.9-170v76.5c0 13.6 13.3 11.9 23.4 11.9 20.7 0 35.7-4.5 45.3-13.4 21.9-20.5 17.9-67.2-1.2-88.1-10.3-11.3-24.3-16.9-41.7-16.9-20.4 0-25.8 11-25.8 30zm-312.5 169.9v-151.4c0-24.2-2.9-43.6-30.4-49.4-3.7-0.9-7-0.7-9.5-4.1-2.4-3.6-2.1-8.2 1.3-11.2 3.7-2.9 8.5-2.6 12.8-1.9 16.7 1.8 33.4 2.6 50.1 2.6 44.8 0 88.6-1.3 131.1-4 9.1-1.2 21-3 22.3 9.4 0 17.5 2.7 35.2 3.6 52.8 0.2 3.6-0.6 6.1-1.8 7.3-2.4 2.6-9.3 2.8-11.7 0-3.5-4.2-3.3-13.7-5-18.8-3.4-10.4-9.7-17.7-18.8-21.8-9.3-4-25.7-6.1-49.4-6.1-14.6 0-23.5 1.6-26.8 4.8q-4.9 4.8-4.9 24.4v54.8c0 8.7 1.2 13.9 3.6 15.7 2.4 1.8 10.1 2.7 23.2 2.7 21.3 0 37.3-7.3 44.4-28.9 1.5-4 3.7-9.8 9-9.8 6 0 7.8 3.9 7.8 9.5q0 3.3-0.6 11.5c-1.6 15-1.1 30.6-0.3 45.2 0.7 8.5 2.9 17.4 2.9 25.9 0 3.2-0.5 5.5-1.5 6.7-2.2 2.9-8.5 2.5-10.9 0.2-3.6-3.8-3-14.3-5.2-19.5-9.3-19.7-30.6-20.7-49.8-20.7q-14 0-18.3 4.3c-2.9 2.9-4.3 10.9-4.3 24v55.3c0 21.1-0.7 37.7 24.3 37.7 32.7 0 65-8.9 87.6-33.7 5.2-5.5 7.6-14.5 12.8-19.2 3-2.7 8-2.1 10.5 1 4.8 6.3 0.9 19.9-1 26.5-8.4 28.7-27.2 50.9-58.4 50.9-12.2 0-24.5-1.1-36.8-1.8-36.5-1.7-72.3-2.7-108.7 1.3-5.8 0.5-11.6 1.4-17.4 1.4-7.1 0-11.4-8.8-6.5-14.1 1.4-1.6 4.4-3.5 9.1-5.6 23.1-10.5 21.6-32.2 21.6-53.9zm-154.9 0.1v-151.4c0-23.1-2.7-42.9-28.7-49.3-4-1.4-8.6-0.2-11.3-4.2-2.4-3.3-1.9-7.9 0.9-10.8 3-2.9 6.9-2.7 10.6-2 33.1 3.7 67.9 4.3 101-0.4 3.1 0 6.1-0.9 9.2-0.9 5.2 0 10.6 2.3 10.6 8.3 0 5.8-7.1 8.4-11.4 9.8-19 6.2-18.5 22.8-18.5 39.6v172.7c0 20 3.5 34.3 24.5 41.3 4.5 1.5 10.2 1.8 13.9 4.8 3.8 3.2 3.6 9.6 0.4 13.2-3.1 3.5-7.4 2.8-11.6 2.5-17.8-1.7-35.5-4.1-53.4-4.1-15.2 0-30.5 0.9-45.6 3.2-5.9 0.6-16.2 3.3-20.9-1.5-3.1-3.1-3.5-8-0.4-11.4 1.3-1.7 4.3-3.5 8.8-5.6 23.3-10.6 21.9-32 21.9-53.8zm-320.6 0v-151.4c0-24.3-2.4-43.7-30.2-49.5-3.8-1.1-6.8-0.7-9.6-4.1-2.5-3.5-2.4-8.4 1.3-11.2 4.7-3.7 10.1-1.7 15.4-1.7 16.4 1.5 32.1 2.4 47.4 2.4 15.7 0 32.2-0.9 49.3-2.6 6.3-0.6 19.2-2.6 19.2 7.4 0 8.3-11.5 9.5-17.1 12-13.9 6.7-12.9 24.5-12.9 37.4v70.3c0 2.2 0.7 7.4 3.8 7.4 2 0 5.6-3.2 7-4.4 28.1-27 68.3-56.1 92.8-86.9 3.6-5 5.4-9.7 5.4-13.9 0-6.2-4.3-10.2-12.9-11.9-5.3 0-13-3-13-9.2 0-2.8 0.7-4.8 2.1-5.9 2.9-2.5 8.6-2 12.3-1.9 26.3 1.5 52.5 2.2 78.9 0.6 4.2-0.8 11.3-1.5 14.9 0.9 3 2.2 3.1 9.2 0.8 11.9-3.4 3.1-13.7 5.9-18.1 8-13.9 6.2-31.6 18.7-53 37.6-14.1 11.8-27.7 24.7-41.6 36.9-9 6.7-8.5 10.1-2.6 18.5l92.2 132.7c6.3 8.9 13.4 16.9 23.4 21.6 2.7 1.5 9.5 2 11.2 4.6 2 3.2 1.7 11.5-1.6 13.9-1.7 1.3-5 2-10 2-9.6 0-19.2-1.3-28.9-1.3-10.8 0-21.6 1.6-32.3 1.6-4.1 0-8.4-2.1-12.8-6.2-4.5-4.1-10.2-11.5-17.3-22.1l-70.2-105.6c-2.7-4.9-7.2-8.5-11.9-3.8l-12.6 11.8c-4.8 4.3-6 7.3-6 13.7v51.8c0 21.9 5.5 36 28.9 41.8 3.9 1.3 8.8 1.7 12.1 4.5 3.9 3.2 3.4 9.6 0.2 13-3.6 3.7-8.8 2.9-13.4 2.5-34-2.4-65.1-6.1-99.5-0.9-5 0.5-10 1.2-15 1.2-4.6 0-8.7-4.1-8.7-8.7 0-3.8 3.7-7.5 10.9-11.2 23-11.5 21.7-31.1 21.7-53.6z"/>
</svg>
