<?xml version="1.0" encoding="utf-8"?>
<!-- Generator: Adobe Illustrator 29.2.1, SVG Export Plug-In . SVG Version: 9.03 Build 55982)  -->
<svg version="1.0" id="Layer_1" xmlns="http://www.w3.org/2000/svg" xmlns:xlink="http://www.w3.org/1999/xlink" x="0px" y="0px"
	 viewBox="0 0 850.39 283.46" style="enable-background:new 0 0 850.39 283.46;" xml:space="preserve">
<g>
	<path d="M553.51,222.31h4.68v-17.99h-4.68V222.31z M546.12,222.31h4.68v-17.99h-4.68V222.31z M536.75,219.68
		c-0.96,0-1.65-0.54-1.65-1.45v-0.05c0-0.99,0.79-1.65,2.14-1.65c0.69,0,1.36,0.15,1.82,0.34v0.62
		C539.07,218.81,538.11,219.68,536.75,219.68 M535.08,222.61c1.75,0,3.01-0.67,3.92-1.68v1.38h4.63v-7.66
		c0-1.87-0.42-3.25-1.43-4.24c-1.06-1.06-2.69-1.63-5.08-1.63c-2.29,0-3.89,0.42-5.4,1.03l0.96,3.3c1.18-0.47,2.27-0.74,3.67-0.74
		c1.8,0,2.66,0.79,2.66,2.17v0.22c-0.76-0.27-1.97-0.52-3.2-0.52c-3.13,0-5.22,1.43-5.22,4.19v0.05
		C530.59,221.16,532.54,222.61,535.08,222.61 M525.94,222.58c1.31,0,2.41-0.3,3.25-0.76v-3.67c-0.57,0.27-1.16,0.44-1.77,0.44
		c-0.86,0-1.28-0.39-1.28-1.33v-4.51h3.1v-3.77h-3.1v-3.38h-4.68v3.38h-1.58v3.77h1.58v5.42
		C521.45,221.35,523.13,222.58,525.94,222.58 M513.52,222.61c3.25,0,5.45-1.53,5.45-4.46v-0.05c0-2.59-2.09-3.5-4.73-4.24
		c-1.4-0.42-2.17-0.67-2.17-1.18v-0.05c0-0.37,0.37-0.64,1.08-0.64c1.06,0,2.56,0.47,3.94,1.23l1.6-2.96
		c-1.53-0.99-3.55-1.55-5.49-1.55c-3.08,0-5.35,1.58-5.35,4.41v0.05c0,2.69,2.09,3.57,4.73,4.26c1.4,0.39,2.14,0.62,2.14,1.13v0.05
		c0,0.47-0.37,0.71-1.18,0.71c-1.38,0-3.06-0.52-4.58-1.53l-1.75,2.83C509.06,221.97,511.28,222.61,513.52,222.61 M492.6,222.31
		h4.68v-7.22c0-1.45,0.84-2.24,1.97-2.24c1.11,0,1.87,0.79,1.87,2.24v7.22h4.68v-8.72c0-3.03-1.7-4.9-4.53-4.9
		c-1.9,0-3.13,1.06-3.99,2.17v-1.87h-4.68V222.31z M484.91,222.31h4.8v-17.25h-4.8V222.31z M470.52,222.31h4.88v-4.8h-4.88V222.31z
		 M452.88,214.55c0.25-1.45,1.08-2.41,2.32-2.41c1.28,0,2.14,0.94,2.32,2.41H452.88z M455.59,222.63c2.66,0,4.51-1.08,5.79-2.71
		l-2.59-2.14c-0.96,0.94-1.85,1.36-2.96,1.36c-1.45,0-2.51-0.74-2.88-2.19h8.92c0.02-0.32,0.02-0.67,0.02-0.96
		c0-3.92-2.12-7.29-6.73-7.29c-3.94,0-6.73,3.08-6.73,6.97v0.05C448.45,219.85,451.4,222.63,455.59,222.63 M438.69,222.31h4.68
		v-4.14c0-3.08,1.38-4.48,3.82-4.48h0.39v-4.93c-2.22-0.1-3.45,1.08-4.21,2.91v-2.69h-4.68V222.31z M427.5,222.61
		c1.9,0,3.13-1.01,3.99-2.12v1.82h4.68v-13.33h-4.68v7.22c0,1.45-0.84,2.24-1.95,2.24c-1.13,0-1.9-0.79-1.9-2.24v-7.22h-4.68v8.72
		C422.97,220.74,424.67,222.61,427.5,222.61 M417.75,222.58c1.31,0,2.41-0.3,3.25-0.76v-3.67c-0.57,0.27-1.16,0.44-1.77,0.44
		c-0.86,0-1.28-0.39-1.28-1.33v-4.51h3.1v-3.77h-3.1v-3.38h-4.68v3.38h-1.58v3.77h1.58v5.42
		C413.26,221.35,414.94,222.58,417.75,222.58 M404.86,222.63c2.93,0,4.71-1.23,5.94-3.06l-3.13-2.27c-0.74,0.86-1.45,1.38-2.56,1.38
		c-1.58,0-2.66-1.31-2.66-3.03v-0.05c0-1.63,1.11-2.96,2.61-2.96c1.13,0,1.85,0.52,2.49,1.4l3.18-2.37
		c-1.13-1.8-2.96-2.98-5.69-2.98c-4.21,0-7.15,3.18-7.15,6.95v0.05C397.89,219.48,400.85,222.63,404.86,222.63 M389.17,219.68
		c-0.96,0-1.65-0.54-1.65-1.45v-0.05c0-0.99,0.79-1.65,2.14-1.65c0.69,0,1.36,0.15,1.82,0.34v0.62
		C391.48,218.81,390.52,219.68,389.17,219.68 M387.49,222.61c1.75,0,3.01-0.67,3.92-1.68v1.38h4.63v-7.66
		c0-1.87-0.42-3.25-1.43-4.24c-1.06-1.06-2.69-1.63-5.08-1.63c-2.29,0-3.89,0.42-5.4,1.03l0.96,3.3c1.18-0.47,2.27-0.74,3.67-0.74
		c1.8,0,2.66,0.79,2.66,2.17v0.22c-0.76-0.27-1.97-0.52-3.2-0.52c-3.13,0-5.22,1.43-5.22,4.19v0.05
		C383.01,221.16,384.95,222.61,387.49,222.61 M374.93,222.31h4.66v-9.58h2.98v-3.6h-3.06v-0.32c0-0.86,0.47-1.26,1.33-1.26
		c0.67,0,1.21,0.1,1.75,0.27v-3.3c-0.74-0.22-1.63-0.37-3.06-0.37c-1.58,0-2.66,0.34-3.47,1.16c-0.79,0.79-1.13,1.92-1.13,3.45v0.3
		h-1.55v3.67h1.55V222.31z M362.9,222.61c1.9,0,3.13-1.01,3.99-2.12v1.82h4.68v-13.33h-4.68v7.22c0,1.45-0.84,2.24-1.95,2.24
		c-1.13,0-1.9-0.79-1.9-2.24v-7.22h-4.68v8.72C358.37,220.74,360.07,222.61,362.9,222.61 M342.85,222.31h4.68v-7.22
		c0-1.45,0.84-2.24,1.97-2.24c1.11,0,1.87,0.79,1.87,2.24v7.22h4.68v-8.72c0-3.03-1.7-4.9-4.53-4.9c-1.9,0-3.13,1.06-3.99,2.17
		v-1.87h-4.68V222.31z M333.58,219.68c-0.96,0-1.65-0.54-1.65-1.45v-0.05c0-0.99,0.79-1.65,2.14-1.65c0.69,0,1.36,0.15,1.82,0.34
		v0.62C335.9,218.81,334.94,219.68,333.58,219.68 M331.91,222.61c1.75,0,3.01-0.67,3.92-1.68v1.38h4.63v-7.66
		c0-1.87-0.42-3.25-1.43-4.24c-1.06-1.06-2.69-1.63-5.08-1.63c-2.29,0-3.89,0.42-5.4,1.03l0.96,3.3c1.18-0.47,2.27-0.74,3.67-0.74
		c1.8,0,2.66,0.79,2.66,2.17v0.22c-0.76-0.27-1.97-0.52-3.2-0.52c-3.13,0-5.22,1.43-5.22,4.19v0.05
		C327.42,221.16,329.37,222.61,331.91,222.61 M306.97,222.31h4.68v-9.86l4.39,6.7h0.1l4.41-6.75v9.9h4.76v-17.25h-5.05l-4.11,6.68
		l-4.11-6.68h-5.05V222.31z M292.68,222.31h4.88v-4.8h-4.88V222.31z M270.43,222.31h4.68v-7.22c0-1.45,0.84-2.24,1.97-2.24
		c1.11,0,1.87,0.79,1.87,2.24v7.22h4.68v-8.72c0-3.03-1.7-4.9-4.53-4.9c-1.9,0-3.13,1.06-3.99,2.17v-1.87h-4.68V222.31z
		 M260.6,217.53c-1.6,0-2.73-1.08-2.73-2.56v-0.05c0-1.48,1.13-2.59,2.73-2.59c1.58,0,2.71,1.08,2.71,2.56v0.05
		C263.31,216.42,262.18,217.53,260.6,217.53 M260.33,226.3c2.78,0,4.66-0.67,5.86-1.87c1.18-1.18,1.72-2.88,1.72-5.32v-10.13h-4.68
		v1.58c-1.01-1.06-2.19-1.87-4.19-1.87c-3.08,0-5.77,2.37-5.77,6.21v0.05c0,3.82,2.64,6.18,5.91,6.18c1.95,0,3.18-0.91,4.11-2v0.52
		c0,2.12-1.16,3.28-3.5,3.28c-1.8,0-3.23-0.47-4.66-1.26l-1.5,3.1C255.58,225.76,257.74,226.3,260.33,226.3 M246.48,222.31h4.68
		v-13.33h-4.68V222.31z M246.39,207.78h4.88v-3.45h-4.88V207.78z M239.02,222.61c3.25,0,5.45-1.53,5.45-4.46v-0.05
		c0-2.59-2.09-3.5-4.73-4.24c-1.4-0.42-2.17-0.67-2.17-1.18v-0.05c0-0.37,0.37-0.64,1.08-0.64c1.06,0,2.56,0.47,3.94,1.23l1.6-2.96
		c-1.53-0.99-3.55-1.55-5.49-1.55c-3.08,0-5.35,1.58-5.35,4.41v0.05c0,2.69,2.09,3.57,4.73,4.26c1.4,0.39,2.14,0.62,2.14,1.13v0.05
		c0,0.47-0.37,0.71-1.18,0.71c-1.38,0-3.06-0.52-4.58-1.53l-1.75,2.83C234.56,221.97,236.78,222.61,239.02,222.61 M222.71,214.55
		c0.25-1.45,1.08-2.41,2.32-2.41c1.28,0,2.14,0.94,2.32,2.41H222.71z M225.42,222.63c2.66,0,4.51-1.08,5.79-2.71l-2.59-2.14
		c-0.96,0.94-1.85,1.36-2.96,1.36c-1.45,0-2.51-0.74-2.88-2.19h8.92c0.02-0.32,0.02-0.67,0.02-0.96c0-3.92-2.12-7.29-6.73-7.29
		c-3.94,0-6.73,3.08-6.73,6.97v0.05C218.27,219.85,221.23,222.63,225.42,222.63 M205.02,218.08v-8.77h1.95
		c2.86,0,4.76,1.6,4.76,4.36v0.05c0,2.78-1.9,4.36-4.76,4.36H205.02z M200.24,222.31h6.55c6.21,0,9.83-3.7,9.83-8.67v-0.05
		c0-4.98-3.57-8.53-9.73-8.53h-6.65V222.31z"/>
	<path d="M169.38,192.5c14.04-12.74,21.06-30.09,21.06-52.04c0-21.95-7-39.26-21.01-51.92c-14-12.66-33.19-18.99-57.58-18.99
		c-24.46,0-43.71,6.32-57.75,18.99c-14.04,12.66-21.06,29.97-21.06,51.92c0,21.95,7.06,39.3,21.17,52.04
		c12.94,11.67,30.15,17.99,51.66,18.97v-59.11H61.72v-29.08h3.73c13.69,0,24.1-2.3,31.22-6.92c7.11-4.6,11.72-11.99,13.83-22.17
		h34.66V206.6C154.46,203.4,162.53,198.72,169.38,192.5 M279.5,190.15h30.06v-53.42c0-8.9-0.44-15.45-1.32-19.64
		c-0.87-4.18-2.34-7.83-4.39-10.94c-3.34-4.98-8.09-8.81-14.24-11.51c-6.15-2.7-13.3-4.05-21.44-4.05c-7.21,0-13.98,1.43-20.31,4.31
		c-6.32,2.86-12.15,7.15-17.48,12.83V93.13h-30.05v97.01h30.05v-47.89c0-8.55,2.51-15.27,7.52-20.16c5.01-4.9,11.87-7.35,20.61-7.35
		c7.73,0,13.16,2.02,16.29,6.06c3.13,4.05,4.7,11.49,4.7,22.32V190.15z M348.07,129.24c0.53-5.91,2.98-10.61,7.34-14.09
		c4.36-3.49,10.01-5.24,16.92-5.24c6.97,0,12.63,1.74,16.96,5.19c4.34,3.45,6.76,8.19,7.3,14.23L348.07,129.24z M347.19,149.46
		h82.78v-4.13c0-17.81-5.06-31.54-15.16-41.17c-10.12-9.63-24.51-14.46-43.2-14.46c-17.97,0-32.18,4.65-42.61,13.93
		c-10.43,9.28-15.65,21.93-15.65,37.92c0,16,5.23,28.67,15.69,38c10.46,9.35,24.65,14.02,42.56,14.02c14.14,0,26.11-3.04,35.95-9.1
		c9.84-6.06,16.76-14.65,20.74-25.78h-33.13c-1.82,4.45-4.78,7.89-8.87,10.32c-4.11,2.42-9,3.64-14.69,3.64
		c-7.26,0-13.09-2.08-17.52-6.28C349.66,162.19,347.36,156.55,347.19,149.46 M468.8,118.35c0-2.75,1.72-4.93,5.15-6.5
		c3.43-1.58,8.18-2.37,14.27-2.37c7.27,0,12.83,1.04,16.7,3.12c3.87,2.08,6.15,5.25,6.86,9.54h30.05v-0.88
		c0-9.83-4.59-17.56-13.8-23.15c-9.2-5.6-21.94-8.4-38.22-8.4c-17.05,0-30.1,2.83-39.16,8.48c-9.05,5.66-13.57,13.81-13.57,24.48
		c0,8.2,2.93,14.98,8.79,20.34c5.85,5.36,13.79,8.47,23.81,9.35l27.15,2.38c6.92,0.52,11.45,1.34,13.59,2.45
		c2.14,1.12,3.2,2.93,3.2,5.44c0,2.83-1.88,5.1-5.67,6.87c-3.77,1.75-8.8,2.63-15.07,2.63c-9.14,0-15.84-1.08-20.08-3.25
		c-4.25-2.17-6.61-5.69-7.08-10.54h-31.72c0.64,11.65,5.7,20.44,15.16,26.36c9.46,5.9,23.19,8.88,41.17,8.88
		c17.8,0,31.32-3.02,40.55-9.05c9.23-6.04,13.83-14.85,13.83-26.46c0-8.49-2.79-15.24-8.38-20.25c-5.6-5-13.61-7.89-24.04-8.66
		l-21.01-1.67c-8.2-0.64-14-1.67-17.4-3.08C470.5,123.01,468.8,120.99,468.8,118.35 M579.45,93.13h-29.87v97.01h29.87V93.13z
		 M549.58,83.47h29.87v-23.3h-29.87V83.47z M673.43,138.3c0,7.9-2.56,14.21-7.69,18.89c-5.13,4.7-12.02,7.04-20.7,7.04
		c-8.73,0-15.66-2.34-20.78-7.04c-5.13-4.68-7.69-10.99-7.69-18.89c0-7.91,2.57-14.2,7.69-18.89c5.12-4.69,12.05-7.04,20.78-7.04
		c8.67,0,15.57,2.35,20.7,7.04C670.87,124.1,673.43,130.39,673.43,138.3 M701.03,196.9c1.64-4.79,2.46-12.82,2.46-24.06V93.13
		h-30.06v8.79c-4.1-3.92-8.92-6.82-14.45-8.7c-5.53-1.88-12.11-2.81-19.73-2.81c-16.28,0-29.53,4.47-39.72,13.4
		c-10.19,8.93-15.29,20.42-15.29,34.48c0,14.24,5.11,25.74,15.33,34.54c10.23,8.77,23.63,13.18,40.21,13.18
		c7.38,0,13.82-0.99,19.32-2.91c5.52-1.93,10.29-4.86,14.33-8.78v6.49c0,8.21-2.12,13.93-6.36,17.19
		c-4.25,3.25-11.82,4.87-22.73,4.87c-7.38,0-12.86-1-16.43-3.03c-3.57-2.03-5.36-5.09-5.36-9.18H592.5v1.68
		c0,10.6,4.34,18.57,13.01,23.93c8.67,5.36,21.56,8.04,38.66,8.04c11.14,0,20.64-1.19,28.52-3.61c7.89-2.39,14.57-6.12,20.09-11.15
		C696.64,205.93,699.39,201.72,701.03,196.9 M818.12,190.15v-53.42c0-8.9-0.44-15.45-1.32-19.64c-0.88-4.18-2.34-7.83-4.39-10.94
		c-3.34-4.98-8.08-8.81-14.24-11.51c-6.15-2.7-13.3-4.05-21.44-4.05c-7.2,0-13.97,1.43-20.3,4.31c-6.33,2.86-12.16,7.15-17.49,12.83
		V93.13h-30.05v97.01h30.05v-47.89c0-8.55,2.51-15.27,7.52-20.16c5-4.9,11.88-7.35,20.61-7.35c7.73,0,13.17,2.02,16.3,6.06
		c3.13,4.05,4.7,11.49,4.7,22.32v47.01H818.12z"/>
</g>
</svg>
